<?xml version="1.0" standalone="no"?><svg xmlns:xlink="http://www.w3.org/1999/xlink" xmlns="http://www.w3.org/2000/svg" viewBox="0 0 1000 181.8116504854369" preserveAspectRatio="xMaxYMax slice"><g transform="scale(0.970873786407767)"><rect x="0" y="0" width="1030" height="187.27272727272728" fill="#ffffff"/><rect x="0" y="0" width="93.64" height="93.64" fill="#02384e"/><path d="M 0 93.64 A 93.64 93.64 0 0 1  93.64 0 L 93.64 93.64" fill="#ffc3a8"/><rect x="93.63636363636364" y="0" width="93.63636363636364" height="93.63636363636364" fill="#ffffff"/><rect x="93.64" y="0" width="46.82" height="46.82" fill="#02384e"/><path d="M 93.64 0 A 46.82 46.82 0 0 1 140.46 46.82 L 93.64 46.82" fill="#02384e"/><rect x="140.45" y="0" width="46.82" height="46.82" fill="#ffc3a8"/><path d="M 140.45 0 A 46.82 46.82 0 0 0 187.26999999999998 46.82 L 187.26999999999998 0" fill="#ffc3a8"/><rect x="93.64" y="46.82" width="46.82" height="46.82" fill="#ffc3a8"/><path d="M 93.64 46.82 A 46.82 46.82 0 0 0 140.46 93.64 L 140.46 46.82" fill="#02384e"/><rect x="140.45" y="46.82" width="46.82" height="46.82" fill="#02384e"/><path d="M 140.45 46.82 A 46.82 46.82 0 0 1  187.26999999999998 93.64 L 140.45 46.82 A 46.82 46.82 0 0 0 187.26999999999998 93.64" fill="#02384e"/><rect x="187.27" y="0" width="93.64" height="93.64" fill="#ffc3a8"/><path d="M 187.27 0 A 93.64 93.64 0 0 1 280.91 93.64 L 187.27 93.64" fill="#02384e"/><rect x="280.90909090909093" y="0" width="93.63636363636364" height="93.63636363636364" fill="#ffffff"/><rect x="280.91" y="0" width="46.82" height="46.82" fill="#02384e"/><path d="M 280.91 0 A 46.82 46.82 0 0 0 327.73 46.82 L 327.73 0" fill="#02384e"/><rect x="327.73" y="0" width="46.82" height="46.82" fill="#02384e"/><path d="M 327.73 46.82 A 46.82 46.82 0 0 0 374.55 0 L 327.73 0" fill="#02384e"/><rect x="280.91" y="46.82" width="46.82" height="46.82" fill="#ffc3a8"/><path d="M 280.91 93.64 A 46.82 46.82 0 0 1  327.73 46.82 L 280.91 93.64 A 46.82 46.82 0 0 0 327.73 46.82" fill="#02384e"/><rect x="327.73" y="46.82" width="46.82" height="46.82" fill="#02384e"/><path d="M 327.73 93.64 A 46.82 46.82 0 0 1  374.55 46.82 L 374.55 93.64" fill="#02384e"/><rect x="374.54545454545456" y="0" width="93.63636363636364" height="93.63636363636364" fill="#ffffff"/><rect x="374.55" y="0" width="46.82" height="46.82" fill="#ffc3a8"/><path d="M 374.55 0 A 46.82 46.82 0 0 1  421.37 46.82 L 374.55 0 A 46.82 46.82 0 0 0 421.37 46.82" fill="#ffc3a8"/><rect x="421.36" y="0" width="46.82" height="46.82" fill="#02384e"/><path d="M 421.36 0 A 46.82 46.82 0 0 0 468.18 46.82 L 468.18 0" fill="#02384e"/><rect x="374.55" y="46.82" width="46.82" height="46.82" fill="#ffc3a8"/><path d="M 374.55 93.64 A 46.82 46.82 0 0 0 421.37 46.82 L 374.55 46.82" fill="#02384e"/><rect x="421.36" y="46.82" width="46.82" height="46.82" fill="#ffc3a8"/><path d="M 421.36 93.64 A 46.82 46.82 0 0 1  468.18 46.82 L 468.18 93.64" fill="#ffc3a8"/><rect x="468.1818181818182" y="0" width="93.63636363636364" height="93.63636363636364" fill="#ffffff"/><rect x="468.18" y="0" width="46.82" height="46.82" fill="#02384e"/><path d="M 468.18 0 A 46.82 46.82 0 0 0 515 46.82 L 515 0" fill="#02384e"/><rect x="515" y="0" width="46.82" height="46.82" fill="#02384e"/><path d="M 515 46.82 A 46.82 46.82 0 0 1  561.82 0 L 561.82 46.82" fill="#02384e"/><rect x="468.18" y="46.82" width="46.82" height="46.82" fill="#02384e"/><path d="M 468.18 46.82 A 46.82 46.82 0 0 1 515 93.64 L 468.18 93.64" fill="#ffc3a8"/><rect x="515" y="46.82" width="46.82" height="46.82" fill="#02384e"/><path d="M 515 46.82 A 46.82 46.82 0 0 0 561.82 93.64 L 561.82 46.82" fill="#02384e"/><rect x="561.82" y="0" width="93.64" height="93.64" fill="#ffc3a8"/><path d="M 561.82 93.64 A 93.64 93.64 0 0 1  655.46 0 L 561.82 93.64 A 93.64 93.64 0 0 0 655.46 0" fill="#02384e"/><rect x="655.45" y="0" width="93.64" height="93.64" fill="#ffc3a8"/><path d="M 655.45 93.64 A 93.64 93.64 0 0 1  749.09 0 L 655.45 93.64 A 93.64 93.64 0 0 0 749.09 0" fill="#02384e"/><rect x="749.09" y="0" width="93.64" height="93.64" fill="#02384e"/><path d="M 749.09 93.64 A 93.64 93.64 0 0 1  842.73 0 L 749.09 93.64 A 93.64 93.64 0 0 0 842.73 0" fill="#02384e"/><rect x="842.7272727272727" y="0" width="93.63636363636364" height="93.63636363636364" fill="#ffffff"/><rect x="842.73" y="0" width="46.82" height="46.82" fill="#ffc3a8"/><path d="M 842.73 46.82 A 46.82 46.82 0 0 1  889.5500000000001 0 L 842.73 46.82 A 46.82 46.82 0 0 0 889.5500000000001 0" fill="#ffc3a8"/><rect x="889.55" y="0" width="46.82" height="46.82" fill="#02384e"/><path d="M 889.55 0 A 46.82 46.82 0 0 0 936.37 46.82 L 936.37 0" fill="#ffc3a8"/><rect x="842.73" y="46.82" width="46.82" height="46.82" fill="#02384e"/><path d="M 842.73 93.64 A 46.82 46.82 0 0 0 889.5500000000001 46.82 L 842.73 46.82" fill="#02384e"/><rect x="889.55" y="46.82" width="46.82" height="46.82" fill="#02384e"/><path d="M 889.55 46.82 A 46.82 46.82 0 0 1  936.37 93.64 L 889.55 46.82 A 46.82 46.82 0 0 0 936.37 93.64" fill="#02384e"/><rect x="936.36" y="0" width="93.64" height="93.64" fill="#ffc3a8"/><path d="M 936.36 0 A 93.64 93.64 0 0 0 1030 93.64 L 1030 0" fill="#02384e"/><rect x="0" y="93.64" width="93.64" height="93.64" fill="#ffc3a8"/><path d="M 0 93.64 A 93.64 93.64 0 0 0 93.64 187.28 L 93.64 93.64" fill="#02384e"/><rect x="93.64" y="93.64" width="93.64" height="93.64" fill="#02384e"/><path d="M 93.64 187.28 A 93.64 93.64 0 0 1  187.28 93.64 L 93.64 187.28 A 93.64 93.64 0 0 0 187.28 93.64" fill="#02384e"/><rect x="187.27" y="93.64" width="93.64" height="93.64" fill="#02384e"/><path d="M 187.27 187.28 A 93.64 93.64 0 0 1  280.91 93.64 L 187.27 187.28 A 93.64 93.64 0 0 0 280.91 93.64" fill="#ffc3a8"/><rect x="280.91" y="93.64" width="93.64" height="93.64" fill="#02384e"/><path d="M 280.91 93.64 A 93.64 93.64 0 0 1 374.55 187.28 L 280.91 187.28" fill="#ffc3a8"/><rect x="374.55" y="93.64" width="93.64" height="93.64" fill="#ffc3a8"/><path d="M 374.55 93.64 A 93.64 93.64 0 0 1  468.19 187.28 L 374.55 93.64 A 93.64 93.64 0 0 0 468.19 187.28" fill="#ffc3a8"/><rect x="468.1818181818182" y="93.63636363636364" width="93.63636363636364" height="93.63636363636364" fill="#ffffff"/><rect x="468.18" y="93.64" width="46.82" height="46.82" fill="#02384e"/><path d="M 468.18 93.64 A 46.82 46.82 0 0 1 515 140.46 L 468.18 140.46" fill="#ffc3a8"/><rect x="515" y="93.64" width="46.82" height="46.82" fill="#ffc3a8"/><path d="M 515 93.64 A 46.82 46.82 0 0 1  561.82 140.46 L 515 93.64 A 46.82 46.82 0 0 0 561.82 140.46" fill="#02384e"/><rect x="468.18" y="140.45" width="46.82" height="46.82" fill="#ffc3a8"/><path d="M 468.18 187.26999999999998 A 46.82 46.82 0 0 1  515 140.45 L 515 187.26999999999998" fill="#ffc3a8"/><rect x="515" y="140.45" width="46.82" height="46.82" fill="#02384e"/><path d="M 515 140.45 A 46.82 46.82 0 0 1  561.82 187.26999999999998 L 515 140.45 A 46.82 46.82 0 0 0 561.82 187.26999999999998" fill="#ffc3a8"/><rect x="561.8181818181819" y="93.63636363636364" width="93.63636363636364" height="93.63636363636364" fill="#ffffff"/><rect x="561.82" y="93.64" width="46.82" height="46.82" fill="#02384e"/><path d="M 561.82 93.64 A 46.82 46.82 0 0 0 608.6400000000001 140.46 L 608.6400000000001 93.64" fill="#ffc3a8"/><rect x="608.64" y="93.64" width="46.82" height="46.82" fill="#02384e"/><path d="M 608.64 93.64 A 46.82 46.82 0 0 0 655.46 140.46 L 655.46 93.64" fill="#02384e"/><rect x="561.82" y="140.45" width="46.82" height="46.82" fill="#02384e"/><path d="M 561.82 140.45 A 46.82 46.82 0 0 1  608.6400000000001 187.26999999999998 L 561.82 140.45 A 46.82 46.82 0 0 0 608.6400000000001 187.26999999999998" fill="#02384e"/><rect x="608.64" y="140.45" width="46.82" height="46.82" fill="#ffc3a8"/><path d="M 608.64 187.26999999999998 A 46.82 46.82 0 0 1  655.46 140.45 L 655.46 187.26999999999998" fill="#ffc3a8"/><rect x="655.4545454545455" y="93.63636363636364" width="93.63636363636364" height="93.63636363636364" fill="#ffffff"/><rect x="655.45" y="93.64" width="46.82" height="46.82" fill="#02384e"/><path d="M 655.45 93.64 A 46.82 46.82 0 0 0 702.2700000000001 140.46 L 702.2700000000001 93.64" fill="#ffc3a8"/><rect x="702.27" y="93.64" width="46.82" height="46.82" fill="#02384e"/><path d="M 702.27 93.64 A 46.82 46.82 0 0 1  749.09 140.46 L 702.27 93.64 A 46.82 46.82 0 0 0 749.09 140.46" fill="#02384e"/><rect x="655.45" y="140.45" width="46.82" height="46.82" fill="#ffc3a8"/><path d="M 655.45 187.26999999999998 A 46.82 46.82 0 0 0 702.2700000000001 140.45 L 655.45 140.45" fill="#ffc3a8"/><rect x="702.27" y="140.45" width="46.82" height="46.82" fill="#02384e"/><path d="M 702.27 140.45 A 46.82 46.82 0 0 1 749.09 187.26999999999998 L 702.27 187.26999999999998" fill="#02384e"/><rect x="749.09" y="93.64" width="93.64" height="93.64" fill="#ffc3a8"/><path d="M 749.09 93.64 A 93.64 93.64 0 0 1 842.73 187.28 L 749.09 187.28" fill="#ffc3a8"/><rect x="842.73" y="93.64" width="93.64" height="93.64" fill="#02384e"/><path d="M 842.73 187.28 A 93.64 93.64 0 0 1  936.37 93.64 L 842.73 187.28 A 93.64 93.64 0 0 0 936.37 93.64" fill="#02384e"/><rect x="936.36" y="93.64" width="93.64" height="93.64" fill="#02384e"/><path d="M 936.36 93.64 A 93.64 93.64 0 0 1  1030 187.28 L 936.36 93.64 A 93.64 93.64 0 0 0 1030 187.28" fill="#02384e"/></g></svg>