<?xml version="1.0" standalone="no"?><svg xmlns:xlink="http://www.w3.org/1999/xlink" xmlns="http://www.w3.org/2000/svg" viewBox="0 0 1000 90.89805825242719" preserveAspectRatio="xMaxYMax slice"><g transform="scale(0.970873786407767)"><rect x="0" y="0" width="1030" height="93.63636363636364" fill="#ffffff"/><rect x="0" y="0" width="93.64" height="93.64" fill="#a8b7f4"/><polygon points="0,0 93.64,93.64 0,93.64" fill="#7088ec"/><rect x="93.63636363636364" y="0" width="93.63636363636364" height="93.63636363636364" fill="#ffffff"/><rect x="93.64" y="0" width="46.82" height="46.82" fill="#617ceb"/><path d="M 93.64 46.82 A 46.82 46.82 0 0 1  140.46 0 L 140.46 46.82" fill="#ffa9be"/><rect x="140.45" y="0" width="46.82" height="46.82" fill="#5b77ea"/><path d="M 140.45 0 A 46.82 46.82 0 0 1 187.26999999999998 46.82 L 140.45 46.82" fill="#2d51e4"/><rect x="93.64" y="46.82" width="46.82" height="46.82" fill="#b2bff5"/><path d="M 93.64 46.82 A 46.82 46.82 0 0 0 140.46 93.64 L 140.46 46.82" fill="#7f95ee"/><rect x="140.45" y="46.82" width="46.82" height="46.82" fill="#4464e7"/><path d="M 140.45 93.64 A 46.82 46.82 0 0 0 187.26999999999998 46.82 L 140.45 46.82" fill="#ff99b1"/><rect x="187.27272727272728" y="0" width="93.63636363636364" height="93.63636363636364" fill="#ffffff"/><rect x="187.27" y="0" width="46.82" height="46.82" fill="#5571e9"/><polygon points="234.09,0 234.09,46.82 187.27,46.82" fill="#fff1f4"/><rect x="234.09" y="0" width="46.82" height="46.82" fill="#afbcf5"/><polygon points="234.09,0 280.91,0 234.09,46.82" fill="#e5eafc"/><rect x="187.27" y="46.82" width="46.82" height="46.82" fill="#ff547d"/><polygon points="187.27,46.82 234.09,46.82 234.09,93.64" fill="#ffe5ec"/><rect x="234.09" y="46.82" width="46.82" height="46.82" fill="#ff5e84"/><polygon points="234.09,46.82 280.91,93.64 234.09,93.64" fill="#ff5b82"/><rect x="280.91" y="0" width="93.64" height="93.64" fill="#e4e9fc"/><polygon points="280.91,0 374.55,93.64 280.91,93.64" fill="#ffa2b8"/><rect x="374.55" y="0" width="93.64" height="93.64" fill="#788fee"/><path d="M 374.55 93.64 A 93.64 93.64 0 0 1  468.19 0 L 374.55 93.64 A 93.64 93.64 0 0 0 468.19 0" fill="#d6ddfa"/><rect x="468.18" y="0" width="93.64" height="93.64" fill="#d4dbf9"/><polygon points="468.18,0 561.82,0 468.18,93.64" fill="#7a90ee"/><rect x="561.82" y="0" width="93.64" height="93.64" fill="#ff82a0"/><path d="M 561.82 93.64 A 93.64 93.64 0 0 1  655.46 0 L 561.82 93.64 A 93.64 93.64 0 0 0 655.46 0" fill="#ffaec1"/><rect x="655.4545454545455" y="0" width="93.63636363636364" height="93.63636363636364" fill="#ffffff"/><rect x="655.45" y="0" width="46.82" height="46.82" fill="#ffb1c3"/><path d="M 655.45 0 A 46.82 46.82 0 0 1 702.2700000000001 46.82 L 655.45 46.82" fill="#fff2f5"/><rect x="702.27" y="0" width="46.82" height="46.82" fill="#d6ddfa"/><path d="M 702.27 46.82 A 46.82 46.82 0 0 1  749.09 0 L 749.09 46.82" fill="#7a90ee"/><rect x="655.45" y="46.82" width="46.82" height="46.82" fill="#ffbbcb"/><path d="M 655.45 93.64 A 46.82 46.82 0 0 0 702.2700000000001 46.82 L 655.45 46.82" fill="#ff8ca7"/><rect x="702.27" y="46.82" width="46.82" height="46.82" fill="#ffa1b7"/><path d="M 702.27 46.82 A 46.82 46.82 0 0 0 749.09 93.64 L 749.09 46.82" fill="#ffe8ee"/><rect x="749.09" y="0" width="93.64" height="93.64" fill="#2147e2"/><rect x="749.09" y="0" width="93.64" height="93.64" fill="#e5eafc"/><rect x="842.73" y="0" width="93.64" height="93.64" fill="#ff9ab2"/><rect x="842.73" y="0" width="93.64" height="93.64" fill="#ffbfce"/><rect x="936.3636363636364" y="0" width="93.63636363636364" height="93.63636363636364" fill="#ffffff"/><rect x="936.36" y="0" width="46.82" height="46.82" fill="#768ded"/><path d="M 936.36 0 A 46.82 46.82 0 0 0 983.1800000000001 46.82 L 983.1800000000001 0" fill="#fffdfd"/><rect x="983.18" y="0" width="46.82" height="46.82" fill="#ffd2dd"/><path d="M 983.18 46.82 A 46.82 46.82 0 0 0 1030 0 L 983.18 0" fill="#ff7797"/><rect x="936.36" y="46.82" width="46.82" height="46.82" fill="#ff7596"/><path d="M 936.36 93.64 A 46.82 46.82 0 0 1  983.1800000000001 46.82 L 983.1800000000001 93.64" fill="#ff92ac"/><rect x="983.18" y="46.82" width="46.82" height="46.82" fill="#b0bef5"/><path d="M 983.18 46.82 A 46.82 46.82 0 0 1 1030 93.64 L 983.18 93.64" fill="#fff1f5"/></g></svg>