<?xml version="1.0" standalone="no"?><svg xmlns:xlink="http://www.w3.org/1999/xlink" xmlns="http://www.w3.org/2000/svg" viewBox="0 0 1000 181.8116504854369" preserveAspectRatio="xMaxYMax slice"><g transform="scale(0.970873786407767)"><rect x="0" y="0" width="1030" height="187.27272727272728" fill="#ffffff"/><rect x="0" y="0" width="93.63636363636364" height="93.63636363636364" fill="#ffffff"/><rect x="0" y="0" width="46.82" height="46.82" fill="#c18de5"/><path d="M 0 46.82 A 46.82 46.82 0 0 1 46.82 0 L 46.82 11.705 A 35.115 35.115 0 0 0 11.705 46.82" fill="#ffb4e5"/><rect x="46.82" y="0" width="46.82" height="46.82" fill="#ffb4e5"/><path d="M 46.82 0 A 46.82 46.82 0 0 1 93.64 46.82 L 81.935 46.82 A 35.115 35.115 0 0 0 46.82 11.705" fill="#ffb4e5"/><rect x="0" y="46.82" width="46.82" height="46.82" fill="#ffb4e5"/><path d="M 0 46.82 A 46.82 46.82 0 0 0 46.82 93.64 L 46.82 81.935 A 35.115 35.115 0 0 1 11.705 46.82" fill="#ffb4e5"/><rect x="46.82" y="46.82" width="46.82" height="46.82" fill="#ffb4e5"/><path d="M 46.82 93.64 A 46.82 46.82 0 0 0 93.64 46.82 L 81.935 46.82 A 35.115 35.115 0 0 1 46.82 81.935" fill="#ffb4e5"/><rect x="93.63636363636364" y="0" width="93.63636363636364" height="93.63636363636364" fill="#ffffff"/><rect x="93.64" y="0" width="46.82" height="46.82" fill="#ffb4e5"/><polygon points="140.46,0 140.46,46.82 93.64,46.82" fill="#c18de5"/><rect x="140.45" y="0" width="46.82" height="46.82" fill="#c18de5"/><polygon points="140.45,0 187.26999999999998,46.82 140.45,46.82" fill="#c18de5"/><rect x="93.64" y="46.82" width="46.82" height="46.82" fill="#c18de5"/><polygon points="93.64,46.82 140.46,46.82 93.64,93.64" fill="#ffb4e5"/><rect x="140.45" y="46.82" width="46.82" height="46.82" fill="#ffb4e5"/><polygon points="140.45,46.82 187.26999999999998,46.82 187.26999999999998,93.64" fill="#ffb4e5"/><rect x="187.27" y="0" width="93.64" height="93.64" fill="#c18de5"/><path d="M 187.27 93.64 A 93.64 93.64 0 0 1  280.91 0 L 187.27 93.64 A 93.64 93.64 0 0 0 280.91 0" fill="#c18de5"/><rect x="280.91" y="0" width="93.64" height="93.64" fill="#c18de5"/><rect x="280.91" y="0" width="93.64" height="93.64" fill="#c18de5"/><rect x="374.55" y="0" width="93.64" height="93.64" fill="#c18de5"/><path d="M 374.55 0 A 93.64 93.64 0 0 0 468.19 93.64 L 468.19 0" fill="#c18de5"/><rect x="468.1818181818182" y="0" width="93.63636363636364" height="93.63636363636364" fill="#ffffff"/><rect x="468.18" y="0" width="46.82" height="46.82" fill="#ffb4e5"/><path d="M 468.18 46.82 A 46.82 46.82 0 0 1  515 0 L 515 46.82" fill="#c18de5"/><rect x="515" y="0" width="46.82" height="46.82" fill="#c18de5"/><path d="M 515 0 A 46.82 46.82 0 0 1 561.82 46.82 L 515 46.82" fill="#ffb4e5"/><rect x="468.18" y="46.82" width="46.82" height="46.82" fill="#ffb4e5"/><path d="M 468.18 46.82 A 46.82 46.82 0 0 0 515 93.64 L 515 46.82" fill="#c18de5"/><rect x="515" y="46.82" width="46.82" height="46.82" fill="#ffb4e5"/><path d="M 515 93.64 A 46.82 46.82 0 0 0 561.82 46.82 L 515 46.82" fill="#ffb4e5"/><rect x="561.8181818181819" y="0" width="93.63636363636364" height="93.63636363636364" fill="#ffffff"/><rect x="561.82" y="0" width="46.82" height="46.82" fill="#c18de5"/><path d="M 561.82 0 A 46.82 46.82 0 0 1 608.6400000000001 46.82 L 561.82 46.82" fill="#ffb4e5"/><rect x="608.64" y="0" width="46.82" height="46.82" fill="#ffb4e5"/><path d="M 608.64 46.82 A 46.82 46.82 0 0 1  655.46 0 L 655.46 46.82" fill="#c18de5"/><rect x="561.82" y="46.82" width="46.82" height="46.82" fill="#ffb4e5"/><path d="M 561.82 93.64 A 46.82 46.82 0 0 0 608.6400000000001 46.82 L 561.82 46.82" fill="#ffb4e5"/><rect x="608.64" y="46.82" width="46.82" height="46.82" fill="#c18de5"/><path d="M 608.64 46.82 A 46.82 46.82 0 0 0 655.46 93.64 L 655.46 46.82" fill="#ffb4e5"/><rect x="655.4545454545455" y="0" width="93.63636363636364" height="93.63636363636364" fill="#ffffff"/><rect x="655.45" y="0" width="46.82" height="46.82" fill="#c18de5"/><path d="M 655.45 46.82 A 46.82 46.82 0 0 1  702.2700000000001 0 L 702.2700000000001 46.82" fill="#ffb4e5"/><rect x="702.27" y="0" width="46.82" height="46.82" fill="#ffb4e5"/><path d="M 702.27 0 A 46.82 46.82 0 0 1 749.09 46.82 L 702.27 46.82" fill="#ffb4e5"/><rect x="655.45" y="46.82" width="46.82" height="46.82" fill="#ffb4e5"/><path d="M 655.45 46.82 A 46.82 46.82 0 0 0 702.2700000000001 93.64 L 702.2700000000001 46.82" fill="#ffb4e5"/><rect x="702.27" y="46.82" width="46.82" height="46.82" fill="#c18de5"/><path d="M 702.27 93.64 A 46.82 46.82 0 0 0 749.09 46.82 L 702.27 46.82" fill="#c18de5"/><rect x="749.0909090909091" y="0" width="93.63636363636364" height="93.63636363636364" fill="#ffffff"/><rect x="749.09" y="0" width="46.82" height="46.82" fill="#ffb4e5"/><path d="M 749.09 0 A 46.82 46.82 0 0 1 795.9100000000001 46.82 L 749.09 46.82" fill="#c18de5"/><rect x="795.91" y="0" width="46.82" height="46.82" fill="#ffb4e5"/><path d="M 795.91 46.82 A 46.82 46.82 0 0 1  842.73 0 L 842.73 46.82" fill="#ffb4e5"/><rect x="749.09" y="46.82" width="46.82" height="46.82" fill="#ffb4e5"/><path d="M 749.09 93.64 A 46.82 46.82 0 0 0 795.9100000000001 46.82 L 749.09 46.82" fill="#c18de5"/><rect x="795.91" y="46.82" width="46.82" height="46.82" fill="#ffb4e5"/><path d="M 795.91 46.82 A 46.82 46.82 0 0 0 842.73 93.64 L 842.73 46.82" fill="#ffb4e5"/><rect x="842.7272727272727" y="0" width="93.63636363636364" height="93.63636363636364" fill="#ffffff"/><rect x="842.73" y="0" width="46.82" height="46.82" fill="#c18de5"/><path d="M 842.73 0 A 46.82 46.82 0 0 0 889.5500000000001 46.82 L 889.5500000000001 0" fill="#ffb4e5"/><rect x="889.55" y="0" width="46.82" height="46.82" fill="#ffb4e5"/><path d="M 889.55 46.82 A 46.82 46.82 0 0 0 936.37 0 L 889.55 0" fill="#c18de5"/><rect x="842.73" y="46.82" width="46.82" height="46.82" fill="#ffb4e5"/><path d="M 842.73 93.64 A 46.82 46.82 0 0 1  889.5500000000001 46.82 L 889.5500000000001 93.64" fill="#c18de5"/><rect x="889.55" y="46.82" width="46.82" height="46.82" fill="#ffb4e5"/><path d="M 889.55 46.82 A 46.82 46.82 0 0 1 936.37 93.64 L 889.55 93.64" fill="#ffb4e5"/><rect x="936.36" y="0" width="93.64" height="93.64" fill="#c18de5"/><polygon points="1030,0 1030,93.64 936.36,93.64" fill="#c18de5"/><rect x="0" y="93.64" width="93.64" height="93.64" fill="#ffb4e5"/><rect x="0" y="93.64" width="93.64" height="93.64" fill="#ffb4e5"/><rect x="93.63636363636364" y="93.63636363636364" width="93.63636363636364" height="93.63636363636364" fill="#ffffff"/><rect x="93.64" y="93.64" width="46.82" height="46.82" fill="#ffb4e5"/><polygon points="140.46,93.64 140.46,140.46 93.64,140.46" fill="#ffb4e5"/><rect x="140.45" y="93.64" width="46.82" height="46.82" fill="#ffb4e5"/><polygon points="140.45,93.64 187.26999999999998,140.46 140.45,140.46" fill="#ffb4e5"/><rect x="93.64" y="140.45" width="46.82" height="46.82" fill="#ffb4e5"/><polygon points="93.64,140.45 140.46,140.45 140.46,187.26999999999998" fill="#ffb4e5"/><rect x="140.45" y="140.45" width="46.82" height="46.82" fill="#ffb4e5"/><polygon points="140.45,140.45 187.26999999999998,140.45 140.45,187.26999999999998" fill="#c18de5"/><rect x="187.27" y="93.64" width="93.64" height="93.64" fill="#ffb4e5"/><polygon points="187.27,93.64 280.91,93.64 187.27,187.28" fill="#ffb4e5"/><rect x="280.90909090909093" y="93.63636363636364" width="93.63636363636364" height="93.63636363636364" fill="#ffffff"/><rect x="280.91" y="93.64" width="46.82" height="46.82" fill="#ffb4e5"/><path d="M 280.91 140.46 A 46.82 46.82 0 0 1 327.73 93.64 L 327.73 105.345 A 35.115 35.115 0 0 0 292.615 140.46" fill="#c18de5"/><rect x="327.73" y="93.64" width="46.82" height="46.82" fill="#ffb4e5"/><path d="M 327.73 93.64 A 46.82 46.82 0 0 1 374.55 140.46 L 362.845 140.46 A 35.115 35.115 0 0 0 327.73 105.345" fill="#ffb4e5"/><rect x="280.91" y="140.45" width="46.82" height="46.82" fill="#ffb4e5"/><path d="M 280.91 140.45 A 46.82 46.82 0 0 0 327.73 187.26999999999998 L 327.73 175.565 A 35.115 35.115 0 0 1 292.615 140.45" fill="#ffb4e5"/><rect x="327.73" y="140.45" width="46.82" height="46.82" fill="#c18de5"/><path d="M 327.73 187.26999999999998 A 46.82 46.82 0 0 0 374.55 140.45 L 362.845 140.45 A 35.115 35.115 0 0 1 327.73 175.565" fill="#c18de5"/><rect x="374.55" y="93.64" width="93.64" height="93.64" fill="#c18de5"/><path d="M 374.55 93.64 A 93.64 93.64 0 0 0 468.19 187.28 L 468.19 93.64" fill="#c18de5"/><rect x="468.18" y="93.64" width="93.64" height="93.64" fill="#c18de5"/><polygon points="468.18,93.64 561.82,187.28 468.18,187.28" fill="#c18de5"/><rect x="561.8181818181819" y="93.63636363636364" width="93.63636363636364" height="93.63636363636364" fill="#ffffff"/><rect x="561.82" y="93.64" width="46.82" height="46.82" fill="#c18de5"/><path d="M 561.82 93.64 A 46.82 46.82 0 0 0 608.6400000000001 140.46 L 608.6400000000001 93.64" fill="#ffb4e5"/><rect x="608.64" y="93.64" width="46.82" height="46.82" fill="#c18de5"/><path d="M 608.64 140.46 A 46.82 46.82 0 0 0 655.46 93.64 L 608.64 93.64" fill="#ffb4e5"/><rect x="561.82" y="140.45" width="46.82" height="46.82" fill="#ffb4e5"/><path d="M 561.82 187.26999999999998 A 46.82 46.82 0 0 1  608.6400000000001 140.45 L 608.6400000000001 187.26999999999998" fill="#c18de5"/><rect x="608.64" y="140.45" width="46.82" height="46.82" fill="#c18de5"/><path d="M 608.64 140.45 A 46.82 46.82 0 0 1 655.46 187.26999999999998 L 608.64 187.26999999999998" fill="#ffb4e5"/><rect x="655.4545454545455" y="93.63636363636364" width="93.63636363636364" height="93.63636363636364" fill="#ffffff"/><rect x="655.45" y="93.64" width="46.82" height="46.82" fill="#ffb4e5"/><polygon points="702.2700000000001,93.64 702.2700000000001,140.46 655.45,140.46" fill="#c18de5"/><rect x="702.27" y="93.64" width="46.82" height="46.82" fill="#ffb4e5"/><polygon points="702.27,93.64 749.09,140.46 702.27,140.46" fill="#c18de5"/><rect x="655.45" y="140.45" width="46.82" height="46.82" fill="#ffb4e5"/><polygon points="655.45,140.45 702.2700000000001,140.45 702.2700000000001,187.26999999999998" fill="#c18de5"/><rect x="702.27" y="140.45" width="46.82" height="46.82" fill="#c18de5"/><polygon points="702.27,140.45 749.09,140.45 702.27,187.26999999999998" fill="#c18de5"/><rect x="749.09" y="93.64" width="93.64" height="93.64" fill="#ffb4e5"/><polygon points="749.09,93.64 842.73,93.64 842.73,187.28" fill="#ffb4e5"/><rect x="842.73" y="93.64" width="93.64" height="93.64" fill="#ffb4e5"/><path d="M 842.73 187.28 A 93.64 93.64 0 0 0 936.37 93.64 L 842.73 93.64" fill="#ffb4e5"/><rect x="936.36" y="93.64" width="93.64" height="93.64" fill="#ffb4e5"/><path d="M 936.36 93.64 A 93.64 93.64 0 0 1 1030 187.28 L 936.36 187.28" fill="#ffb4e5"/></g></svg>