<?xml version="1.0" standalone="no"?><svg xmlns:xlink="http://www.w3.org/1999/xlink" xmlns="http://www.w3.org/2000/svg" viewBox="0 0 1000 181.8116504854369" preserveAspectRatio="xMaxYMax slice"><g transform="scale(0.970873786407767)"><rect x="0" y="0" width="1030" height="187.27272727272728" fill="#ffffff"/><circle cx="46.82" cy="46.82" r="46.82" fill="#76d7ea"/><rect x="93.63636363636364" y="0" width="93.63636363636364" height="93.63636363636364" fill="#ffffff"/><circle cx="117.05" cy="23.41" r="23.41" fill="#76d7ea"/><circle cx="163.85999999999999" cy="23.41" r="23.41" fill="#010b13"/><circle cx="117.05" cy="70.23" r="23.41" fill="#010b13"/><circle cx="163.85999999999999" cy="70.23" r="23.41" fill="#76d7ea"/><circle cx="234.09" cy="46.82" r="46.82" fill="#010b13"/><circle cx="327.73" cy="46.82" r="46.82" fill="#76d7ea"/><rect x="374.54545454545456" y="0" width="93.63636363636364" height="93.63636363636364" fill="#ffffff"/><circle cx="397.96000000000004" cy="23.41" r="23.41" fill="#76d7ea"/><circle cx="444.77000000000004" cy="23.41" r="23.41" fill="#010b13"/><circle cx="397.96000000000004" cy="70.23" r="23.41" fill="#010b13"/><circle cx="444.77000000000004" cy="70.23" r="23.41" fill="#76d7ea"/><circle cx="515" cy="46.82" r="46.82" fill="#76d7ea"/><rect x="561.8181818181819" y="0" width="93.63636363636364" height="93.63636363636364" fill="#ffffff"/><circle cx="585.23" cy="23.41" r="23.41" fill="#76d7ea"/><circle cx="632.05" cy="23.41" r="23.41" fill="#76d7ea"/><circle cx="585.23" cy="70.23" r="23.41" fill="#010b13"/><circle cx="632.05" cy="70.23" r="23.41" fill="#010b13"/><rect x="655.4545454545455" y="0" width="93.63636363636364" height="93.63636363636364" fill="#ffffff"/><circle cx="678.86" cy="23.41" r="23.41" fill="#76d7ea"/><circle cx="725.68" cy="23.41" r="23.41" fill="#010b13"/><circle cx="678.86" cy="70.23" r="23.41" fill="#76d7ea"/><circle cx="725.68" cy="70.23" r="23.41" fill="#010b13"/><circle cx="795.9100000000001" cy="46.82" r="46.82" fill="#010b13"/><circle cx="889.5500000000001" cy="46.82" r="46.82" fill="#010b13"/><circle cx="983.1800000000001" cy="46.82" r="46.82" fill="#010b13"/><circle cx="46.82" cy="140.46" r="46.82" fill="#010b13"/><rect x="93.63636363636364" y="93.63636363636364" width="93.63636363636364" height="93.63636363636364" fill="#ffffff"/><circle cx="117.05" cy="117.05" r="23.41" fill="#010b13"/><circle cx="163.85999999999999" cy="117.05" r="23.41" fill="#010b13"/><circle cx="117.05" cy="163.85999999999999" r="23.41" fill="#010b13"/><circle cx="163.85999999999999" cy="163.85999999999999" r="23.41" fill="#010b13"/><circle cx="234.09" cy="140.46" r="46.82" fill="#010b13"/><rect x="280.90909090909093" y="93.63636363636364" width="93.63636363636364" height="93.63636363636364" fill="#ffffff"/><circle cx="304.32000000000005" cy="117.05" r="23.41" fill="#76d7ea"/><circle cx="351.14000000000004" cy="117.05" r="23.41" fill="#76d7ea"/><circle cx="304.32000000000005" cy="163.85999999999999" r="23.41" fill="#010b13"/><circle cx="351.14000000000004" cy="163.85999999999999" r="23.41" fill="#76d7ea"/><rect x="374.54545454545456" y="93.63636363636364" width="93.63636363636364" height="93.63636363636364" fill="#ffffff"/><circle cx="397.96000000000004" cy="117.05" r="23.41" fill="#010b13"/><circle cx="444.77000000000004" cy="117.05" r="23.41" fill="#010b13"/><circle cx="397.96000000000004" cy="163.85999999999999" r="23.41" fill="#76d7ea"/><circle cx="444.77000000000004" cy="163.85999999999999" r="23.41" fill="#76d7ea"/><circle cx="515" cy="140.46" r="46.82" fill="#010b13"/><rect x="561.8181818181819" y="93.63636363636364" width="93.63636363636364" height="93.63636363636364" fill="#ffffff"/><circle cx="585.23" cy="117.05" r="23.41" fill="#010b13"/><circle cx="632.05" cy="117.05" r="23.41" fill="#010b13"/><circle cx="585.23" cy="163.85999999999999" r="23.41" fill="#010b13"/><circle cx="632.05" cy="163.85999999999999" r="23.41" fill="#76d7ea"/><rect x="655.4545454545455" y="93.63636363636364" width="93.63636363636364" height="93.63636363636364" fill="#ffffff"/><circle cx="678.86" cy="117.05" r="23.41" fill="#010b13"/><circle cx="725.68" cy="117.05" r="23.41" fill="#010b13"/><circle cx="678.86" cy="163.85999999999999" r="23.41" fill="#010b13"/><circle cx="725.68" cy="163.85999999999999" r="23.41" fill="#010b13"/><rect x="749.0909090909091" y="93.63636363636364" width="93.63636363636364" height="93.63636363636364" fill="#ffffff"/><circle cx="772.5" cy="117.05" r="23.41" fill="#76d7ea"/><circle cx="819.3199999999999" cy="117.05" r="23.41" fill="#010b13"/><circle cx="772.5" cy="163.85999999999999" r="23.41" fill="#010b13"/><circle cx="819.3199999999999" cy="163.85999999999999" r="23.41" fill="#010b13"/><rect x="842.7272727272727" y="93.63636363636364" width="93.63636363636364" height="93.63636363636364" fill="#ffffff"/><circle cx="866.14" cy="117.05" r="23.41" fill="#010b13"/><circle cx="912.9599999999999" cy="117.05" r="23.41" fill="#76d7ea"/><circle cx="866.14" cy="163.85999999999999" r="23.41" fill="#76d7ea"/><circle cx="912.9599999999999" cy="163.85999999999999" r="23.41" fill="#76d7ea"/><circle cx="983.1800000000001" cy="140.46" r="46.82" fill="#010b13"/></g></svg>