<?xml version="1.0" standalone="no"?><svg xmlns:xlink="http://www.w3.org/1999/xlink" xmlns="http://www.w3.org/2000/svg" viewBox="0 0 1000 181.8116504854369" preserveAspectRatio="xMaxYMax slice"><g transform="scale(0.970873786407767)"><rect x="0" y="0" width="1030" height="187.27272727272728" fill="#ffffff"/><rect x="0" y="0" width="93.63636363636364" height="93.63636363636364" fill="#ffffff"/><rect x="0" y="0" width="46.82" height="46.82" fill="#fee9e2"/><circle cx="23.41" cy="23.41" r="23.41" fill="#fccdbf"/><rect x="46.82" y="0" width="46.82" height="46.82" fill="#b3e9f3"/><rect x="46.82" y="0" width="46.82" height="46.82" fill="#c4eef6"/><rect x="0" y="46.82" width="46.82" height="46.82" fill="#bbebf5"/><circle cx="23.41" cy="70.23" r="23.41" fill="#fef1ed"/><rect x="46.82" y="46.82" width="46.82" height="46.82" fill="#fef3f0"/><rect x="46.82" y="46.82" width="46.82" height="46.82" fill="#fef5f3"/><rect x="93.64" y="0" width="93.64" height="93.64" fill="#edfafc"/><polygon points="93.64,0 187.28,93.64 93.64,93.64" fill="#fccdbe"/><rect x="187.27" y="0" width="93.64" height="93.64" fill="#b6eaf4"/><polygon points="187.27,0 280.91,93.64 187.27,93.64" fill="#9ce2f0"/><rect x="280.91" y="0" width="93.64" height="93.64" fill="#96e0ef"/><path d="M 280.91 0 A 93.64 93.64 0 0 0 374.55 93.64 L 374.55 0" fill="#86dced"/><rect x="374.54545454545456" y="0" width="93.63636363636364" height="93.63636363636364" fill="#ffffff"/><rect x="374.55" y="0" width="46.82" height="46.82" fill="#fddcd2"/><path d="M 374.55 46.82 A 46.82 46.82 0 0 1  421.37 0 L 421.37 46.82" fill="#fef6f3"/><rect x="421.36" y="0" width="46.82" height="46.82" fill="#fde2da"/><path d="M 421.36 0 A 46.82 46.82 0 0 1 468.18 46.82 L 421.36 46.82" fill="#fccbbb"/><rect x="374.55" y="46.82" width="46.82" height="46.82" fill="#fdd2c5"/><path d="M 374.55 46.82 A 46.82 46.82 0 0 0 421.37 93.64 L 421.37 46.82" fill="#fdd8cc"/><rect x="421.36" y="46.82" width="46.82" height="46.82" fill="#fcc9b9"/><path d="M 421.36 93.64 A 46.82 46.82 0 0 0 468.18 46.82 L 421.36 46.82" fill="#fde4dc"/><rect x="468.1818181818182" y="0" width="93.63636363636364" height="93.63636363636364" fill="#ffffff"/><rect x="468.18" y="0" width="46.82" height="46.82" fill="#fee7e0"/><path d="M 468.18 0 A 46.82 46.82 0 0 1 515 46.82 L 468.18 46.82" fill="#8fdeee"/><rect x="515" y="0" width="46.82" height="46.82" fill="#dbf4f9"/><path d="M 515 46.82 A 46.82 46.82 0 0 1  561.82 0 L 561.82 46.82" fill="#a0e3f0"/><rect x="468.18" y="46.82" width="46.82" height="46.82" fill="#c0ecf5"/><path d="M 468.18 93.64 A 46.82 46.82 0 0 0 515 46.82 L 468.18 46.82" fill="#8bdded"/><rect x="515" y="46.82" width="46.82" height="46.82" fill="#88dced"/><path d="M 515 46.82 A 46.82 46.82 0 0 0 561.82 93.64 L 561.82 46.82" fill="#fccebf"/><rect x="561.8181818181819" y="0" width="93.63636363636364" height="93.63636363636364" fill="#ffffff"/><rect x="561.82" y="0" width="46.82" height="46.82" fill="#fde0d7"/><path d="M 561.82 0 A 46.82 46.82 0 0 1 608.6400000000001 46.82 L 561.82 46.82" fill="#fafefe"/><rect x="608.64" y="0" width="46.82" height="46.82" fill="#fde2d9"/><path d="M 608.64 46.82 A 46.82 46.82 0 0 1  655.46 0 L 655.46 46.82" fill="#fdd4c7"/><rect x="561.82" y="46.82" width="46.82" height="46.82" fill="#aae6f2"/><path d="M 561.82 93.64 A 46.82 46.82 0 0 0 608.6400000000001 46.82 L 561.82 46.82" fill="#fde2d9"/><rect x="608.64" y="46.82" width="46.82" height="46.82" fill="#fdd7cc"/><path d="M 608.64 46.82 A 46.82 46.82 0 0 0 655.46 93.64 L 655.46 46.82" fill="#fef4f1"/><rect x="655.4545454545455" y="0" width="93.63636363636364" height="93.63636363636364" fill="#ffffff"/><rect x="655.45" y="0" width="46.82" height="46.82" fill="#fdd4c8"/><path d="M 655.45 0 A 46.82 46.82 0 0 0 702.2700000000001 46.82 L 702.2700000000001 0" fill="#bbebf5"/><rect x="702.27" y="0" width="46.82" height="46.82" fill="#beecf5"/><path d="M 702.27 46.82 A 46.82 46.82 0 0 0 749.09 0 L 702.27 0" fill="#fee7df"/><rect x="655.45" y="46.82" width="46.82" height="46.82" fill="#d1f2f8"/><path d="M 655.45 93.64 A 46.82 46.82 0 0 1  702.2700000000001 46.82 L 702.2700000000001 93.64" fill="#fde4dc"/><rect x="702.27" y="46.82" width="46.82" height="46.82" fill="#ddf5fa"/><path d="M 702.27 46.82 A 46.82 46.82 0 0 1 749.09 93.64 L 702.27 93.64" fill="#fdd7cb"/><rect x="749.0909090909091" y="0" width="93.63636363636364" height="93.63636363636364" fill="#ffffff"/><rect x="749.09" y="0" width="46.82" height="46.82" fill="#fffaf8"/><path d="M 749.09 0 A 46.82 46.82 0 0 0 795.9100000000001 46.82 L 795.9100000000001 0" fill="#feede8"/><rect x="795.91" y="0" width="46.82" height="46.82" fill="#a9e6f2"/><path d="M 795.91 46.82 A 46.82 46.82 0 0 0 842.73 0 L 795.91 0" fill="#fffefe"/><rect x="749.09" y="46.82" width="46.82" height="46.82" fill="#fee6df"/><path d="M 749.09 93.64 A 46.82 46.82 0 0 1  795.9100000000001 46.82 L 795.9100000000001 93.64" fill="#aae6f2"/><rect x="795.91" y="46.82" width="46.82" height="46.82" fill="#def5fa"/><path d="M 795.91 46.82 A 46.82 46.82 0 0 1 842.73 93.64 L 795.91 93.64" fill="#fdd7cc"/><rect x="842.73" y="0" width="93.64" height="93.64" fill="#fff7f4"/><path d="M 842.73 0 A 93.64 93.64 0 0 0 936.37 93.64 L 936.37 0" fill="#a4e4f1"/><rect x="936.36" y="0" width="93.64" height="93.64" fill="#fccbbb"/><rect x="936.36" y="0" width="93.64" height="93.64" fill="#f2fbfd"/><rect x="0" y="93.63636363636364" width="93.63636363636364" height="93.63636363636364" fill="#ffffff"/><rect x="0" y="93.64" width="46.82" height="46.82" fill="#fff9f8"/><polygon points="46.82,93.64 46.82,140.46 0,140.46" fill="#eaf9fc"/><rect x="46.82" y="93.64" width="46.82" height="46.82" fill="#f1fbfd"/><polygon points="46.82,93.64 93.64,140.46 46.82,140.46" fill="#ddf5fa"/><rect x="0" y="140.45" width="46.82" height="46.82" fill="#8bdded"/><polygon points="0,140.45 46.82,140.45 46.82,187.26999999999998" fill="#fff9f7"/><rect x="46.82" y="140.45" width="46.82" height="46.82" fill="#fdded4"/><polygon points="46.82,140.45 93.64,140.45 46.82,187.26999999999998" fill="#fdddd3"/><rect x="93.63636363636364" y="93.63636363636364" width="93.63636363636364" height="93.63636363636364" fill="#ffffff"/><rect x="93.64" y="93.64" width="46.82" height="46.82" fill="#8edeee"/><circle cx="117.05" cy="117.05" r="23.41" fill="#81daec"/><rect x="140.45" y="93.64" width="46.82" height="46.82" fill="#fccabb"/><rect x="140.45" y="93.64" width="46.82" height="46.82" fill="#ace7f2"/><rect x="93.64" y="140.45" width="46.82" height="46.82" fill="#fdd7cb"/><circle cx="117.05" cy="163.85999999999999" r="23.41" fill="#fddfd6"/><rect x="140.45" y="140.45" width="46.82" height="46.82" fill="#fee6de"/><rect x="140.45" y="140.45" width="46.82" height="46.82" fill="#afe8f3"/><rect x="187.27" y="93.64" width="93.64" height="93.64" fill="#fffbfa"/><path d="M 187.27 93.64 A 93.64 93.64 0 0 1  280.91 187.28 L 187.27 93.64 A 93.64 93.64 0 0 0 280.91 187.28" fill="#fffefe"/><rect x="280.91" y="93.64" width="93.64" height="93.64" fill="#def5fa"/><rect x="280.91" y="93.64" width="93.64" height="93.64" fill="#fffbfa"/><rect x="374.55" y="93.64" width="93.64" height="93.64" fill="#bfecf5"/><rect x="374.55" y="93.64" width="93.64" height="93.64" fill="#fee6de"/><rect x="468.18" y="93.64" width="93.64" height="93.64" fill="#fee7df"/><rect x="468.18" y="93.64" width="93.64" height="93.64" fill="#b2e9f3"/><rect x="561.8181818181819" y="93.63636363636364" width="93.63636363636364" height="93.63636363636364" fill="#ffffff"/><rect x="561.82" y="93.64" width="46.82" height="46.82" fill="#fffefd"/><path d="M 561.82 140.46 A 46.82 46.82 0 0 0 608.6400000000001 93.64 L 561.82 93.64" fill="#a4e5f1"/><rect x="608.64" y="93.64" width="46.82" height="46.82" fill="#fffefd"/><path d="M 608.64 93.64 A 46.82 46.82 0 0 0 655.46 140.46 L 655.46 93.64" fill="#fef3f0"/><rect x="561.82" y="140.45" width="46.82" height="46.82" fill="#fccebf"/><path d="M 561.82 140.45 A 46.82 46.82 0 0 1 608.6400000000001 187.26999999999998 L 561.82 187.26999999999998" fill="#fddfd5"/><rect x="608.64" y="140.45" width="46.82" height="46.82" fill="#c0edf5"/><path d="M 608.64 187.26999999999998 A 46.82 46.82 0 0 1  655.46 140.45 L 655.46 187.26999999999998" fill="#fddbd1"/><rect x="655.4545454545455" y="93.63636363636364" width="93.63636363636364" height="93.63636363636364" fill="#ffffff"/><rect x="655.45" y="93.64" width="46.82" height="46.82" fill="#b5e9f4"/><polygon points="702.2700000000001,93.64 702.2700000000001,140.46 655.45,140.46" fill="#f2fbfd"/><rect x="702.27" y="93.64" width="46.82" height="46.82" fill="#fcd2c4"/><polygon points="702.27,93.64 749.09,140.46 702.27,140.46" fill="#e3f7fb"/><rect x="655.45" y="140.45" width="46.82" height="46.82" fill="#e9f9fc"/><polygon points="655.45,140.45 702.2700000000001,140.45 655.45,187.26999999999998" fill="#fdd4c7"/><rect x="702.27" y="140.45" width="46.82" height="46.82" fill="#d1f2f8"/><polygon points="702.27,140.45 749.09,140.45 749.09,187.26999999999998" fill="#fdd4c7"/><rect x="749.09" y="93.64" width="93.64" height="93.64" fill="#fdd9ce"/><path d="M 749.09 93.64 A 93.64 93.64 0 0 1 842.73 187.28 L 749.09 187.28" fill="#ade7f2"/><rect x="842.7272727272727" y="93.63636363636364" width="93.63636363636364" height="93.63636363636364" fill="#ffffff"/><rect x="842.73" y="93.64" width="46.82" height="46.82" fill="#fde3db"/><polygon points="889.5500000000001,93.64 889.5500000000001,140.46 842.73,140.46" fill="#fffefd"/><rect x="889.55" y="93.64" width="46.82" height="46.82" fill="#c3eef6"/><polygon points="889.55,93.64 936.37,93.64 889.55,140.46" fill="#fef6f3"/><rect x="842.73" y="140.45" width="46.82" height="46.82" fill="#fccbbb"/><polygon points="842.73,140.45 889.5500000000001,140.45 889.5500000000001,187.26999999999998" fill="#feece7"/><rect x="889.55" y="140.45" width="46.82" height="46.82" fill="#fef1ec"/><polygon points="889.55,140.45 936.37,187.26999999999998 889.55,187.26999999999998" fill="#fef0eb"/><rect x="936.3636363636364" y="93.63636363636364" width="93.63636363636364" height="93.63636363636364" fill="#ffffff"/><rect x="936.36" y="93.64" width="46.82" height="46.82" fill="#fde1d9"/><polygon points="983.1800000000001,93.64 983.1800000000001,140.46 936.36,140.46" fill="#fffaf9"/><rect x="983.18" y="93.64" width="46.82" height="46.82" fill="#fccaba"/><polygon points="983.18,93.64 1030,93.64 983.18,140.46" fill="#fde2da"/><rect x="936.36" y="140.45" width="46.82" height="46.82" fill="#84dbec"/><polygon points="936.36,140.45 983.1800000000001,140.45 983.1800000000001,187.26999999999998" fill="#def5fa"/><rect x="983.18" y="140.45" width="46.82" height="46.82" fill="#feebe4"/><polygon points="983.18,140.45 1030,187.26999999999998 983.18,187.26999999999998" fill="#fef1ec"/></g></svg>